<svg width="447" height="61" viewBox="0 0 447 61" fill="none" xmlns="http://www.w3.org/2000/svg">
<path d="M42.8036 13.4499C37.9847 9.88801 32.0654 8.22757 26.3481 8.83392C20.6307 9.44026 15.5835 12.2637 12.3169 16.6832C9.05025 21.1026 7.83172 26.756 8.92936 32.3997C10.027 38.0434 13.3509 43.215 18.1699 46.777L30.4867 30.1135L42.8036 13.4499Z" fill="#FE8432"/>
<path d="M228.804 13.4499C223.985 9.88801 218.065 8.22757 212.348 8.83392C206.631 9.44026 201.584 12.2637 198.317 16.6832C195.05 21.1026 193.832 26.756 194.929 32.3997C196.027 38.0434 199.351 43.215 204.17 46.777L216.487 30.1135L228.804 13.4499Z" fill="#18A7B9"/>
<path d="M428.804 13.4499C423.985 9.88801 418.065 8.22757 412.348 8.83392C406.631 9.44026 401.584 12.2637 398.317 16.6832C395.05 21.1026 393.832 26.756 394.929 32.3997C396.027 38.0434 399.351 43.215 404.17 46.777L416.487 30.1135L428.804 13.4499Z" fill="#42B918"/>
</svg>
